<?xml version="1.0" encoding="UTF-8" standalone="no"?>
<!-- Created with Inkscape (http://www.inkscape.org/) -->

<svg
   xmlns:dc="http://purl.org/dc/elements/1.1/"
   xmlns:cc="http://creativecommons.org/ns#"
   xmlns:rdf="http://www.w3.org/1999/02/22-rdf-syntax-ns#"
   xmlns:svg="http://www.w3.org/2000/svg"
   xmlns="http://www.w3.org/2000/svg"
   xmlns:sodipodi="http://sodipodi.sourceforge.net/DTD/sodipodi-0.dtd"
   xmlns:inkscape="http://www.inkscape.org/namespaces/inkscape"
   sodipodi:docname="snowman_family_centered.svg"
   inkscape:version="0.92.5 (2060ec1f9f, 2020-04-08)"
   version="1.1"
   id="svg2"
   height="1424.7822"
   width="1344.1421">
  <sodipodi:namedview
     id="base"
     pagecolor="#ffffff"
     bordercolor="#666666"
     borderopacity="1.0"
     inkscape:pageopacity="0.0"
     inkscape:pageshadow="2"
     inkscape:zoom="0.41554912"
     inkscape:cx="-31.157511"
     inkscape:cy="818.98441"
     inkscape:document-units="px"
     inkscape:current-layer="layer1"
     showgrid="false"
     inkscape:window-width="1680"
     inkscape:window-height="1002"
     inkscape:window-x="0"
     inkscape:window-y="22"
     inkscape:window-maximized="0"
     fit-margin-top="0"
     fit-margin-left="0"
     fit-margin-right="0"
     fit-margin-bottom="0" />
  <defs
     id="defs4">
    <inkscape:path-effect
       fuse_tolerance="0"
       vertical_pattern="false"
       prop_units="false"
       tang_offset="0"
       normal_offset="0"
       spacing="0"
       scale_y_rel="false"
       prop_scale="1"
       copytype="single_stretched"
       pattern="m -168.57143,-178.57143 h 1"
       is_visible="true"
       id="path-effect3981"
       effect="skeletal" />
    <inkscape:path-effect
       effect="skeletal"
       id="path-effect4325"
       is_visible="true"
       pattern="M 0,0 H 1"
       copytype="single_stretched"
       prop_scale="1"
       scale_y_rel="false"
       spacing="0"
       normal_offset="0"
       tang_offset="0"
       prop_units="false"
       vertical_pattern="false"
       fuse_tolerance="0" />
    <inkscape:path-effect
       effect="skeletal"
       id="path-effect4180"
       is_visible="true"
       pattern="M 0,0 H 1"
       copytype="single_stretched"
       prop_scale="1"
       scale_y_rel="false"
       spacing="0"
       normal_offset="0"
       tang_offset="0"
       prop_units="false"
       vertical_pattern="false"
       fuse_tolerance="0" />
    <inkscape:path-effect
       effect="skeletal"
       id="path-effect4147"
       is_visible="true"
       pattern="M 0,0 H 1"
       copytype="single_stretched"
       prop_scale="1"
       scale_y_rel="false"
       spacing="0"
       normal_offset="0"
       tang_offset="0"
       prop_units="false"
       vertical_pattern="false"
       fuse_tolerance="0" />
    <inkscape:path-effect
       effect="skeletal"
       id="path-effect4079"
       is_visible="true"
       pattern="m -44.446712,18.182746 h 1"
       copytype="single_stretched"
       prop_scale="1"
       scale_y_rel="false"
       spacing="0"
       normal_offset="0"
       tang_offset="0"
       prop_units="false"
       vertical_pattern="false"
       fuse_tolerance="0" />
    <inkscape:path-effect
       effect="skeletal"
       id="path-effect4069"
       is_visible="true"
       pattern="M 0,0 H 1"
       copytype="single_stretched"
       prop_scale="1"
       scale_y_rel="false"
       spacing="0"
       normal_offset="0"
       tang_offset="0"
       prop_units="false"
       vertical_pattern="false"
       fuse_tolerance="0" />
    <inkscape:path-effect
       effect="skeletal"
       id="path-effect4029"
       is_visible="true"
       pattern="M 0,0 H 1"
       copytype="single_stretched"
       prop_scale="1"
       scale_y_rel="false"
       spacing="0"
       normal_offset="0"
       tang_offset="0"
       prop_units="false"
       vertical_pattern="false"
       fuse_tolerance="0" />
    <inkscape:path-effect
       effect="skeletal"
       id="path-effect4021"
       is_visible="true"
       pattern="m -168.57143,-178.57143 h 1"
       copytype="single_stretched"
       prop_scale="1"
       scale_y_rel="false"
       spacing="0"
       normal_offset="0"
       tang_offset="0"
       prop_units="false"
       vertical_pattern="false"
       fuse_tolerance="0" />
    <inkscape:path-effect
       effect="skeletal"
       id="path-effect3982"
       is_visible="true"
       pattern="M 0,0 H 1"
       copytype="single_stretched"
       prop_scale="1"
       scale_y_rel="false"
       spacing="0"
       normal_offset="0"
       tang_offset="0"
       prop_units="false"
       vertical_pattern="false"
       fuse_tolerance="0" />
    <inkscape:path-effect
       effect="skeletal"
       id="path-effect3978"
       is_visible="true"
       pattern="m 12.857143,17.142857 h 1"
       copytype="single_stretched"
       prop_scale="1"
       scale_y_rel="false"
       spacing="0"
       normal_offset="0"
       tang_offset="0"
       prop_units="false"
       vertical_pattern="false"
       fuse_tolerance="0" />
    <inkscape:path-effect
       effect="skeletal"
       id="path-effect3974"
       is_visible="true"
       pattern="m -12.857143,-21.428571 h 1"
       copytype="single_stretched"
       prop_scale="1"
       scale_y_rel="false"
       spacing="0"
       normal_offset="0"
       tang_offset="0"
       prop_units="false"
       vertical_pattern="false"
       fuse_tolerance="0" />
    <inkscape:path-effect
       effect="skeletal"
       id="path-effect3958"
       is_visible="true"
       pattern="M 0,0 H 1"
       copytype="single_stretched"
       prop_scale="1"
       scale_y_rel="false"
       spacing="0"
       normal_offset="0"
       tang_offset="0"
       prop_units="false"
       vertical_pattern="false"
       fuse_tolerance="0" />
    <filter
       inkscape:collect="always"
       id="filter3975"
       style="color-interpolation-filters:sRGB">
      <feGaussianBlur
         inkscape:collect="always"
         stdDeviation="10.675434"
         id="feGaussianBlur3977" />
    </filter>
  </defs>
  <metadata
     id="metadata7">
    <rdf:RDF>
      <cc:Work
         rdf:about="">
        <dc:format>image/svg+xml</dc:format>
        <dc:type
           rdf:resource="http://purl.org/dc/dcmitype/StillImage" />
        <dc:title />
      </cc:Work>
    </rdf:RDF>
  </metadata>
  <g
     inkscape:groupmode="layer"
     id="layer2"
     inkscape:label="Layer 2"
     transform="translate(6.1508802,358.39578)" />
  <g
     id="layer1"
     inkscape:groupmode="layer"
     inkscape:label="Layer 1"
     transform="translate(995.50415,345.75113)">
    <path
       sodipodi:type="star"
       style="color:#000000;display:inline;overflow:visible;visibility:visible;opacity:0.8918919;fill:#ffffff;fill-opacity:1;fill-rule:nonzero;stroke:none;stroke-width:3;marker:none;filter:url(#filter3975);enable-background:accumulate"
       id="path3194"
       sodipodi:sides="12"
       sodipodi:cx="-193.9493"
       sodipodi:cy="-483.57101"
       sodipodi:r1="493.83545"
       sodipodi:r2="237.04105"
       sodipodi:arg1="0.56076757"
       sodipodi:arg2="0.82256696"
       inkscape:flatsided="false"
       inkscape:rounded="0"
       inkscape:randomized="0"
       d="M 224.25384,-220.93136 -32.680283,-309.8449 36.90542,-47.016835 -141.14929,-252.48528 -212.30034,9.9233525 -263.76602,-257.0449 -456.58895,-65.367877 -367.67541,-322.302 l -262.82806,69.5857 205.46844,-178.05471 -262.40863,-71.15105 266.96825,-51.46568 -191.67702,-192.82293 256.93412,88.91354 -69.5857,-262.82806 178.05471,205.46844 71.15105,-262.40863 51.46568,266.96825 192.822927,-191.67702 -88.913537,256.93412 262.82806,-69.5857 -205.46844,178.05471 262.40863,71.15105 -266.968246,51.46568 z"
       transform="matrix(1.4429608,0,0,0.81577555,-98.046896,747.85608)" />
    <g
       id="g1060">
      <rect
         y="-345.24124"
         x="-994.99426"
         height="1423.7625"
         width="1343.1223"
         id="rect4606"
         style="fill:#ffffff;fill-opacity:1;stroke:#fffdff;stroke-width:1.01977611;stroke-miterlimit:4;stroke-dasharray:none;stroke-opacity:1" />
      <g
         id="g4917">
        <ellipse
           ry="356.58383"
           rx="661.64514"
           cy="406.90875"
           cx="-325.6597"
           style="color:#000000;display:inline;overflow:visible;visibility:visible;opacity:0.8918919;fill:#00ffff;fill-opacity:1;fill-rule:nonzero;stroke:none;stroke-width:2.7020669;marker:none;enable-background:accumulate"
           id="path3965" />
        <ellipse
           ry="105.10563"
           rx="97.948341"
           cy="333.18207"
           cx="-197.87474"
           style="color:#000000;display:inline;overflow:visible;visibility:visible;fill:#ffffff;fill-opacity:1;fill-rule:nonzero;stroke:#000000;stroke-width:4.20100451;marker:none;enable-background:accumulate"
           id="path3946" />
        <ellipse
           ry="112.85714"
           rx="101.27323"
           cy="576.64789"
           cx="-686.9837"
           style="color:#000000;display:inline;overflow:visible;visibility:visible;fill:#ffffff;fill-opacity:1;fill-rule:nonzero;stroke:#000000;stroke-width:2.99770188;marker:none;enable-background:accumulate"
           id="path3166" />
        <ellipse
           ry="75"
           rx="69.892792"
           cy="408.79074"
           cx="-685.55725"
           style="color:#000000;display:inline;overflow:visible;visibility:visible;fill:#ffffff;fill-opacity:1;fill-rule:nonzero;stroke:#000000;stroke-width:2.99770188;marker:none;enable-background:accumulate"
           id="path3938" />
        <ellipse
           ry="158.15895"
           rx="141.92516"
           cy="538.41852"
           cx="-446.63806"
           id="path3940"
           style="color:#000000;display:inline;overflow:visible;visibility:visible;fill:#ffffff;fill-opacity:1;fill-rule:nonzero;stroke:#000000;stroke-width:4.20100451;marker:none;enable-background:accumulate" />
        <ellipse
           ry="105.10563"
           rx="97.948341"
           cy="303.18207"
           cx="-444.6391"
           id="path3942"
           style="color:#000000;display:inline;overflow:visible;visibility:visible;fill:#ffffff;fill-opacity:1;fill-rule:nonzero;stroke:#000000;stroke-width:4.20100451;marker:none;enable-background:accumulate" />
        <path
           inkscape:connector-curvature="0"
           id="path4162"
           d="m -94.143905,454.33547 74.670215,38.90197 -9.51442,17.58403 -73.88549,-43.35063 z"
           style="color:#000000;display:inline;overflow:visible;visibility:visible;fill:#2b1100;stroke:#000000;stroke-width:2.99770188;stroke-linecap:square;stroke-linejoin:miter;stroke-miterlimit:4;stroke-dasharray:none;stroke-dashoffset:0;stroke-opacity:1;marker:none;enable-background:accumulate"
           inkscape:transform-center-x="-52.345784"
           inkscape:transform-center-y="-34.402866" />
        <ellipse
           ry="158.15895"
           rx="141.92516"
           cy="542.70422"
           cx="-198.4473"
           style="color:#000000;display:inline;overflow:visible;visibility:visible;fill:#ffffff;fill-opacity:1;fill-rule:nonzero;stroke:#000000;stroke-width:4.20100451;marker:none;enable-background:accumulate"
           id="path3944" />
        <ellipse
           ry="75"
           rx="69.892792"
           cy="408.79074"
           cx="39.045521"
           id="path3950"
           style="color:#000000;display:inline;overflow:visible;visibility:visible;fill:#ffffff;fill-opacity:1;fill-rule:nonzero;stroke:#000000;stroke-width:2.99770188;marker:none;enable-background:accumulate" />
        <ellipse
           ry="112.85714"
           rx="101.27323"
           cy="566.64789"
           cx="37.619144"
           id="path3948"
           style="color:#000000;display:inline;overflow:visible;visibility:visible;fill:#ffffff;fill-opacity:1;fill-rule:nonzero;stroke:#000000;stroke-width:2.99770188;marker:none;enable-background:accumulate" />
        <ellipse
           ry="14.28324"
           rx="8.5597868"
           cy="136.14635"
           cx="-805.44257"
           style="color:#000000;display:inline;overflow:visible;visibility:visible;fill:#000000;fill-opacity:1;fill-rule:nonzero;stroke:none;stroke-width:5.9954052;marker:none;enable-background:accumulate"
           id="path3952"
           transform="matrix(0.94157842,-0.33679382,0.33587943,0.94190499,0,0)" />
        <ellipse
           ry="14.283689"
           rx="8.5595179"
           cy="168.11865"
           cx="-752.48438"
           id="path3954"
           style="color:#000000;display:inline;overflow:visible;visibility:visible;fill:#000000;fill-opacity:1;fill-rule:nonzero;stroke:none;stroke-width:5.99540472;marker:none;enable-background:accumulate"
           transform="matrix(0.95242399,-0.30477621,0.30392966,0.95269447,0,0)" />
        <path
           style="color:#000000;display:inline;overflow:visible;visibility:visible;fill:#ff7f2a;fill-opacity:1;fill-rule:nonzero;stroke:#000000;stroke-width:2.99770188;marker:none;enable-background:accumulate"
           d="m -688.76948,402.69977 56.34771,5.03911 -42.16633,21.02474"
           id="path3960"
           inkscape:connector-curvature="0" />
        <path
           style="color:#000000;display:inline;overflow:visible;visibility:visible;fill:#ff6600;fill-opacity:1;fill-rule:nonzero;stroke:#000000;stroke-width:2.99770188;stroke-linecap:square;stroke-linejoin:miter;stroke-miterlimit:4;stroke-dasharray:none;stroke-dashoffset:0;stroke-opacity:1;marker:none;enable-background:accumulate"
           d="m -443.07211,312.36218 -88.43578,35.71429 91.28854,-14.28572"
           id="path3962"
           inkscape:connector-curvature="0" />
        <path
           style="color:#000000;display:inline;overflow:visible;visibility:visible;fill:#ff6600;fill-opacity:1;fill-rule:nonzero;stroke:#000000;stroke-width:2.99770188;stroke-linecap:square;stroke-linejoin:miter;stroke-miterlimit:4;stroke-dasharray:none;stroke-dashoffset:0;stroke-opacity:1;marker:none;enable-background:accumulate"
           d="m -210.00104,324.36218 -54.20258,28.57143 58.48172,-7.14286"
           id="path3964"
           inkscape:connector-curvature="0" />
        <ellipse
           ry="13.565656"
           rx="6.421463"
           cy="313.51907"
           cx="199.18144"
           style="color:#000000;display:inline;overflow:visible;visibility:visible;fill:#000000;fill-opacity:1;fill-rule:nonzero;stroke:#000000;stroke-width:2.99770331;stroke-linecap:square;stroke-linejoin:miter;stroke-miterlimit:4;stroke-dasharray:none;stroke-dashoffset:0;stroke-opacity:1;marker:none;enable-background:accumulate"
           id="path3968"
           transform="matrix(0.84941151,0.52773107,-0.52656418,0.85013538,0,0)" />
        <path
           style="color:#000000;display:inline;overflow:visible;visibility:visible;fill:#ff6600;fill-opacity:1;fill-rule:nonzero;stroke:#000000;stroke-width:2.99770188;stroke-linecap:square;stroke-linejoin:miter;stroke-miterlimit:4;stroke-dasharray:none;stroke-dashoffset:0;stroke-opacity:1;marker:none;enable-background:accumulate"
           d="m 20.599467,392.10601 -67.613502,-19.06198 45.9591224,38.93544"
           id="path3966"
           inkscape:connector-curvature="0" />
        <ellipse
           ry="20.894073"
           rx="9.9472408"
           cy="308.82709"
           cx="230.97905"
           id="path3970"
           style="color:#000000;display:inline;overflow:visible;visibility:visible;fill:#000000;fill-opacity:1;fill-rule:nonzero;stroke:#000000;stroke-width:2.99777961;stroke-linecap:square;stroke-linejoin:miter;stroke-miterlimit:4;stroke-dasharray:none;stroke-dashoffset:0;stroke-opacity:1;marker:none;enable-background:accumulate"
           transform="matrix(0.85243737,0.52282935,-0.53147393,0.84707465,0,0)" />
        <ellipse
           ry="19.799809"
           rx="11.862116"
           cy="345.79538"
           cx="-455.77661"
           id="path4036"
           style="color:#000000;display:inline;overflow:visible;visibility:visible;fill:#000000;fill-opacity:1;fill-rule:nonzero;stroke:none;stroke-width:8.3096981;marker:none;enable-background:accumulate"
           transform="matrix(0.99410417,0.10842924,-0.10810125,0.99413989,0,0)" />
        <path
           style="color:#000000;display:inline;overflow:visible;visibility:visible;fill:#b7b7c8;fill-opacity:1;fill-rule:nonzero;stroke:#000000;stroke-width:3;marker:none;enable-background:accumulate"
           d="m -575.1688,234.24548 c -4.41078,1.2107 -8.77188,2.63761 -12.94815,4.50296 -3.07461,1.37329 -6.06648,2.98047 -8.71374,5.06161 -1.93066,1.51778 -3.6887,3.30937 -4.87022,5.46231 -0.95426,1.73885 -1.47883,3.72253 -1.41755,5.70507 0,0 0,1e-5 0,1e-5 0.0625,2.0228 0.70097,3.99942 1.64423,5.78992 1e-5,0 1e-5,1e-5 1e-5,1e-5 1.1167,2.11969 2.6374,4.00644 4.31514,5.71679 4.31714,4.40104 9.61334,7.73167 15.07955,10.58252 10e-6,10e-6 2e-5,2e-5 3e-5,2e-5 6.71401,3.50163 13.81734,6.22711 21.07271,8.39481 7.81695,2.33548 15.83395,4.0119 23.93895,4.94362 l 2e-5,0 c 7.85808,0.90333 15.8186,1.1193 23.67816,0.2289 7.02418,-0.79577 14.02319,-2.47915 20.29043,-5.74933 13.30162,-6.94064 27.35288,-12.89453 42.20117,-15.04719 9.27141,-1.34414 18.8283,-0.87889 27.83345,1.70435 l 1e-5,0 c 6.95145,1.99411 13.47741,5.20764 20.18391,7.91353 3.03046,1.22271 6.12596,2.31343 9.32283,2.99074 1e-5,0 1e-5,0 2e-5,0 3.25694,0.69003 6.61698,0.92056 9.92973,0.58965 10e-6,0 10e-6,0 2e-5,0 12.5426,-1.25287 25.05488,-2.99621 37.34002,-5.81785 8.73004,-2.00511 17.39124,-4.51503 25.49864,-8.32344 5.44981,-2.56002 10.75192,-5.71343 14.75888,-10.2077 1.49755,-1.67966 2.78753,-3.55758 3.69628,-5.61625 0,-1e-5 1e-5,-2e-5 1e-5,-3e-5 0.81548,-1.84738 1.31109,-3.83816 1.42446,-5.85434 0.11388,-2.0251 -0.15339,-4.06419 -0.70965,-6.01472 -1e-5,-1e-5 -1e-5,-2e-5 -1e-5,-3e-5 -0.61159,-2.1445 -1.56092,-4.18397 -2.70609,-6.09748 -2.79875,-4.67654 -6.67849,-8.6259 -10.85063,-12.13249 -5.28889,-4.4452 -11.13444,-8.19426 -17.18385,-11.53142 -1e-5,-1e-5 -2e-5,-1e-5 -3e-5,-2e-5 -7.20666,-3.97556 -14.73408,-7.35323 -22.4155,-10.30904 -18.06475,-6.95131 -36.97317,-11.62326 -56.11937,-14.4656 -21.10455,-3.13305 -42.57296,-3.99439 -63.82631,-2.12007 l -3e-5,0 c -21.51914,1.89776 -42.87975,6.65047 -62.7203,15.19608 -9.88782,4.25883 -19.37597,9.46459 -28.19131,15.64493 -9.00018,6.30992 -17.28849,13.63947 -24.60992,21.83795"
           id="path3972"
           inkscape:path-effect="#path-effect3974"
           inkscape:original-d="m -575.1688,234.24548 c -81.04342,22.24529 35.25829,75.06485 82.06957,50.63922 68.83257,-35.91609 81.43603,0.95148 109.47114,-1.84892 232.68226,-23.24238 -86.87062,-179.89994 -206.61471,-45.81152"
           inkscape:connector-curvature="0"
           sodipodi:nodetypes="cssc"
           transform="matrix(0.99846846,0,0,1,0.5331592,0)" />
        <path
           style="color:#000000;display:inline;overflow:visible;visibility:visible;fill:#9393ac;fill-opacity:1;fill-rule:nonzero;stroke:#000000;stroke-width:3;marker:none;enable-background:accumulate"
           d="m -530.52752,201.11907 c -2.31013,-17.31351 -2.37361,-35.23904 2.80299,-51.92129 2.0073,-6.4688 4.83451,-12.69866 8.57171,-18.34737 l 10e-6,0 c 3.39336,-5.129 7.53763,-9.76306 12.28113,-13.67723 4.59461,-3.7913 9.73819,-6.90501 15.18751,-9.31113 5.52272,-2.43853 11.353,-4.1586 17.29082,-5.24906 l 2e-5,-1e-5 c 12.42331,-2.28149 25.26631,-1.86409 37.67948,0.47192 12.73962,2.39744 25.10109,6.81826 36.45625,13.07173 10.86998,5.98628 20.88148,13.69191 28.80864,23.23926 l 10e-6,2e-5 c 3.7345,4.49779 6.98697,9.40782 9.52885,14.67237 l 10e-6,1e-5 c 2.48898,5.15499 4.28492,10.65258 5.20781,16.30212 l 0,1e-5 c 0.95121,5.82289 0.96447,11.79393 0.0837,17.62789 -0.976,6.46498 -3.03267,12.74634 -5.8434,18.64959"
           id="path3976"
           inkscape:path-effect="#path-effect3978"
           inkscape:original-d="m -530.52752,201.11907 c -22.30241,-167.147722 216.45368,-96.11968 168.05558,5.52883"
           inkscape:connector-curvature="0"
           transform="matrix(0.99846846,0,0,1,0.5331592,0)" />
        <path
           style="color:#000000;display:inline;overflow:visible;visibility:visible;fill:#ff0000;fill-opacity:1;fill-rule:nonzero;stroke:#000000;stroke-width:2.99770188;stroke-linecap:square;stroke-linejoin:miter;stroke-miterlimit:4;stroke-dasharray:none;stroke-dashoffset:0;stroke-opacity:1;marker:none;enable-background:accumulate"
           d="m -5.1723748,319.90622 c 0,0 24.2485198,-109.76232 94.1413128,-80.1635 69.892792,29.59883 49.923422,-2.46657 49.923422,-2.46657 0,0 38.51236,14.79942 -7.13192,49.33139 -45.64427,34.53196 -5.70553,62.8975 -5.70553,62.8975 L -10.877908,328.53921"
           id="path4000"
           inkscape:connector-curvature="0" />
        <path
           style="color:#000000;display:inline;overflow:visible;visibility:visible;fill:#ffffff;fill-opacity:1;fill-rule:nonzero;stroke:#000000;stroke-width:2.99770188;stroke-linecap:square;stroke-linejoin:miter;stroke-miterlimit:4;stroke-dasharray:none;stroke-dashoffset:0;stroke-opacity:1;marker:none;enable-background:accumulate"
           d="m 19.848766,308.06696 c -8.300837,0 -15.5476917,4.22974 -19.35506753,10.48455 -1.56713327,-0.23958 -3.18236967,-0.37896 -4.85531757,-0.37896 -12.2583709,0 -22.2020499,6.78664 -22.2020499,15.15839 0,8.37174 9.943679,15.15838 22.2020499,15.15838 4.52844795,0 8.7376525,-0.92051 12.248645,-2.51061 2.7350801,1.62292 5.8909181,2.70028 9.2692451,3.07905 -0.212518,0.99607 -0.331045,2.01267 -0.331045,3.04746 0,11.95964 14.664448,21.64807 32.773404,21.64807 10.227753,0 19.366855,-3.0958 25.380076,-7.94236 3.229137,3.71234 8.406693,6.73363 14.720443,8.63712 2.750153,1.38856 5.926961,2.1948 9.335456,2.1948 0.767391,0 1.530055,-0.048 2.273175,-0.12631 1.24359,0.0815 2.51536,0.12631 3.79598,0.12631 18.66615,0 33.7886,-8.885 33.7886,-19.848 0,-10.963 -15.12245,-19.84801 -33.7886,-19.84801 -3.79538,0 -7.452621,0.36456 -10.858264,1.04214 -1.734384,-6.30469 -12.242899,-11.14773 -24.960754,-11.14773 -6.812334,0 -12.984819,1.40227 -17.523288,3.66328 -0.712853,-0.0306 -1.438276,-0.0631 -2.162824,-0.0631 -2.663914,0 -5.24467,0.21986 -7.724371,0.61581 0.100129,-0.79286 0.154488,-1.59808 0.154488,-2.41587 0,-11.36165 -9.921611,-20.57435 -22.179981,-20.57435 z"
           id="path3984"
           inkscape:connector-curvature="0" />
        <path
           style="color:#000000;display:inline;overflow:visible;visibility:visible;fill:#ffffff;fill-opacity:1;fill-rule:nonzero;stroke:#000000;stroke-width:2.99770188;stroke-linecap:square;stroke-linejoin:miter;stroke-miterlimit:4;stroke-dasharray:none;stroke-dashoffset:0;stroke-opacity:1;marker:none;enable-background:accumulate"
           d="M -5.1723748,423.79075 61.86765,400.93361 c 0,0 -15.690218,44.28572 -44.217889,38.57143 -28.527669,-5.71429 -22.8221358,-15.71429 -22.8221358,-15.71429 z"
           id="path4002"
           inkscape:connector-curvature="0" />
        <path
           style="color:#000000;display:inline;overflow:visible;visibility:visible;fill:#ffffff;fill-opacity:1;fill-rule:nonzero;stroke:#000000;stroke-width:2.99770188;stroke-linecap:square;stroke-linejoin:miter;stroke-miterlimit:4;stroke-dasharray:none;stroke-dashoffset:0;stroke-opacity:1;marker:none;enable-background:accumulate"
           d="m -679.50568,444.5558 -48.49704,-24.28571 c 0,0 -5.70553,18.57142 5.70554,25.71428 11.41107,7.14286 42.7915,-1.42857 42.7915,-1.42857 z"
           id="path4004"
           inkscape:connector-curvature="0" />
        <path
           style="color:#000000;display:inline;overflow:visible;visibility:visible;fill:#552200;stroke:#000000;stroke-width:2.99770188;stroke-linecap:square;stroke-linejoin:miter;stroke-miterlimit:4;stroke-dasharray:none;stroke-dashoffset:0;stroke-opacity:1;marker:none;enable-background:accumulate"
           d="m 165.94446,450.31127 -60.51634,58.58884 14.12048,14.14214 58.49912,-62.62946 z"
           id="path4049"
           inkscape:connector-curvature="0" />
        <path
           style="color:#000000;display:inline;overflow:visible;visibility:visible;fill:#00aa00;fill-opacity:1;fill-rule:nonzero;stroke:#000000;stroke-width:3;marker:none;enable-background:accumulate"
           d="m 163.43361,427.74012 c 0.30795,-4.51318 0.78681,-9.01576 1.45744,-13.48945 0.42644,-2.84467 0.9131,-5.68927 1.72392,-8.44908 0.29867,-1.0166 0.63568,-2.029 1.13453,-2.96378 0.31766,-0.59525 0.70028,-1.22658 1.32531,-1.48067 0,0 10e-6,0 10e-6,0 0.24842,-0.10099 0.53168,-0.14405 0.7845,-0.0546 0.24745,0.0875 0.44071,0.2872 0.58267,0.50796 0,1e-5 0,1e-5 1e-5,1e-5 0.44774,0.69632 0.56073,1.55343 0.65798,2.37554 0.30943,2.61562 0.13392,5.26349 -0.0262,7.89248 0,0 0,0 0,1e-5 -0.15648,2.56939 -0.4087,5.13331 -0.50674,7.7056 0,0 0,0 0,1e-5 -0.0272,0.71497 -0.0886,1.44149 0.0573,2.14195 0.0177,0.0847 0.0393,0.16976 0.0799,0.24618 0,0 1e-5,0 1e-5,1e-5 0.0252,0.0475 0.0607,0.0947 0.1123,0.10995 0.0503,0.0149 0.10435,-0.007 0.14774,-0.0365 0.0743,-0.0505 0.1323,-0.12143 0.18625,-0.19328 3.39864,-4.52641 6.449,-9.30455 9.3644,-14.15631 l 1e-5,-10e-6 c 2.52557,-4.20302 4.92905,-8.47958 7.52044,-12.64234 1.8918,-3.03895 3.81224,-6.1323 6.46422,-8.53668 0.90344,-0.8191 1.91936,-1.55139 3.08218,-1.91881 1.00936,-0.31893 2.12243,-0.29243 3.11349,0.0795 1e-5,1e-5 1e-5,1e-5 2e-5,1e-5 1.53121,0.57463 3.04685,1.253 4.33056,2.26636 0,0 0,0 1e-5,0 0.86334,0.68152 1.61297,1.55735 1.93604,2.60875 0.30103,0.97971 0.20551,2.04615 -0.0887,3.02793 -0.37737,1.25941 -1.03127,2.41878 -1.74358,3.52383 0,1e-5 -1e-5,1e-5 -1e-5,1e-5 -2.03493,3.15692 -4.55776,5.96588 -6.97274,8.8425 -3.19328,3.8037 -6.3321,7.6611 -9.15486,11.74732 -0.36343,0.52609 -0.72501,1.05391 -1.05952,1.59884 -0.17209,0.28034 -0.35916,0.55915 -0.45262,0.87453 -0.0186,0.0627 -0.0397,0.13407 -0.009,0.19178 0,0 1e-5,10e-6 1e-5,10e-6 0.023,0.0431 0.0821,0.0492 0.13045,0.042 0.24436,-0.036 0.45309,-0.19278 0.66281,-0.32325 0.97554,-0.6069 1.88701,-1.31056 2.81835,-1.98331 0,0 0,0 0,-10e-6 1.51329,-1.09312 3.03744,-2.17164 4.58997,-3.20828 4.26265,-2.8462 8.73281,-5.39978 13.44518,-7.41588 5.5157,-2.3598 11.39111,-3.98642 17.38277,-4.28892 1.14073,-0.0576 2.29084,-0.0666 3.4188,0.11311 0.69755,0.11117 1.41105,0.28659 1.97419,0.71297 0.38913,0.29463 0.65593,0.75104 0.68844,1.23805 0.0392,0.58685 -0.17442,1.1628 -0.43851,1.68833 -0.85984,1.71105 -2.24785,3.09528 -3.62253,4.42842 0,1e-5 0,1e-5 -1e-5,1e-5 -1.96206,1.90278 -4.07589,3.6427 -6.22434,5.33221 -4.90832,3.85984 -10.03738,7.42913 -15.17169,10.98283 -2.13852,1.48017 -4.2838,2.95077 -6.4061,4.45411 0,1e-5 -1e-5,1e-5 -1e-5,1e-5 -1.3386,0.94821 -2.70222,1.87187 -3.92542,2.96491 0.005,-0.001 0.005,-0.001 0.005,-0.001 0.004,-0.002 0.009,-0.003 0.0132,-0.005 0,0 1e-5,0 1e-5,0 0.017,-0.006 0.0339,-0.0127 0.0508,-0.0191 0.0653,-0.0247 0.13071,-0.0494 0.19618,-0.0739 0.24811,-0.0925 0.49741,-0.18184 0.74756,-0.26866 1e-5,-1e-5 2e-5,-1e-5 2e-5,-1e-5 0.89998,-0.31236 1.8107,-0.59352 2.72848,-0.84889 2.90393,-0.80799 5.8829,-1.36467 8.89044,-1.56579 3.57793,-0.23927 7.23422,0.0301 10.61158,1.23523 3.66474,1.30766 6.86341,3.87363 8.90456,7.18633 0,10e-6 1e-5,10e-6 1e-5,2e-5 0.28348,0.46009 0.35227,1.0354 0.22674,1.56103 -0.15758,0.65989 -0.5452,1.24342 -0.9829,1.76178 -1.35125,1.60031 -3.18817,2.71546 -5.04216,3.68992 -2.60666,1.37005 -5.38715,2.39192 -8.22302,3.18532 -3.36196,0.94058 -6.81761,1.5455 -10.2987,1.80904 l -2e-5,0 c -7.65792,0.57975 -15.55,-0.53244 -22.40374,-3.9974 -3.7235,-1.88245 -7.09422,-4.45702 -9.89471,-7.54981 -3.26806,-3.60917 -5.75307,-7.88746 -7.54971,-12.41277"
           id="path4019"
           inkscape:path-effect="#path-effect4021"
           inkscape:original-d="m 163.43361,427.74012 c 0.15947,-2.33711 1.84665,-24.84043 5.6412,-26.38298 4.76594,-1.9374 -0.12724,23.62929 2.07576,20.69527 14.06527,-18.73253 21.11275,-40.33902 29.54476,-37.17465 15.06955,5.65531 0.65314,14.14414 -11.69325,32.0167 -7.32754,10.6073 12.63936,-13.25688 37.50844,-14.51245 22.36819,-1.12928 -23.67635,26.52589 -29.70718,31.91496 -0.0481,0.043 22.92054,-9.33604 32.14764,5.63915 4.68068,7.59663 -48.1447,28.40663 -64.16821,-11.95287"
           inkscape:connector-curvature="0"
           sodipodi:nodetypes="cssssscsc"
           transform="matrix(0.99846846,0,0,1,0.5331592,0)" />
        <path
           style="color:#000000;display:inline;overflow:visible;visibility:visible;fill:#cccccc;fill-opacity:1;fill-rule:nonzero;stroke:#000000;stroke-width:2.99770188;stroke-linecap:square;stroke-linejoin:miter;stroke-miterlimit:4;stroke-dasharray:none;stroke-dashoffset:0;stroke-opacity:1;marker:none;enable-background:accumulate"
           d="m 172.3761,431.36216 c -6.79845,-5.11243 -14.96901,-5.70967 -18.25115,-1.33171 -2.72246,3.6314 -1.22661,9.54132 3.243,14.36989 -0.0786,3.53146 1.75097,7.30239 5.15732,9.86396 1.61868,1.21724 3.41096,2.01272 5.19731,2.40191 0.99773,1.12825 2.14881,2.1984 3.4521,3.17848 3.07225,2.31032 6.42901,3.69589 9.48422,4.11919 0.0954,1.39092 0.58424,2.52831 1.51175,3.22579 2.58988,1.9476 7.5426,-0.27174 11.06786,-4.97399 3.52526,-4.70225 4.28125,-10.09759 1.69137,-12.04519 -1.46336,-1.10044 -3.67919,-0.86782 -5.9688,0.39241 -1.32369,-2.34746 -3.33797,-4.63929 -5.90345,-6.56853 -1.04803,-0.78811 -2.11873,-1.45984 -3.20909,-2.0316 -0.79569,-3.62107 -3.43586,-7.56511 -7.47244,-10.60061 z"
           id="path4006"
           inkscape:connector-curvature="0" />
        <ellipse
           cy="575.57019"
           cx="-195.13632"
           id="path4061"
           style="color:#000000;display:inline;overflow:visible;visibility:visible;fill:#000000;fill-opacity:1;fill-rule:nonzero;stroke:#000000;stroke-width:2.99770212;stroke-linecap:square;stroke-linejoin:miter;stroke-miterlimit:4;stroke-dasharray:none;stroke-dashoffset:0;stroke-opacity:1;marker:none;enable-background:accumulate"
           rx="26.223742"
           ry="26.263966" />
        <path
           style="color:#000000;display:inline;overflow:visible;visibility:visible;fill:none;stroke:#000000;stroke-width:2.99770188;stroke-linecap:square;stroke-linejoin:miter;stroke-miterlimit:4;stroke-dasharray:none;stroke-dashoffset:0;stroke-opacity:1;marker:none;enable-background:accumulate"
           d="m -201.18793,359.39754 46.39585,-37.37565 c 0,0 8.06884,-13.13198 0,9.09138 -8.06884,22.22335 -23.19793,25.25381 -23.19793,25.25381 z"
           id="path4172"
           inkscape:connector-curvature="0" />
        <path
           style="color:#000000;display:inline;overflow:visible;visibility:visible;fill:#ff0000;fill-opacity:1;fill-rule:nonzero;stroke:#000000;stroke-width:3;marker:none;enable-background:accumulate"
           d="m -288.57143,386.34053 c 13.63658,-2.7357 27.27031,-5.4965 40.97841,-7.84773 17.78763,-3.05096 35.68523,-5.54577 53.68473,-6.85951 17.51762,-1.27856 35.21734,-1.61427 52.57252,1.08749 1e-5,0 2e-5,0 3e-5,0 7.35883,1.14558 14.66224,2.86799 21.55087,5.69846 5.929,2.43618 11.57563,5.74498 16.09089,10.29475 0.99416,1.00176 1.9148,2.08521 2.65043,3.28967 0.58216,0.95318 1.046288,1.98856 1.267864,3.08326 10e-7,10e-6 3e-6,10e-6 5e-6,2e-5 0.19206,0.9489 0.18886,1.93913 -0.03399,2.88127 -0.228765,0.96711 -0.679305,1.87381 -1.255125,2.68379 0,0 -10e-6,1e-5 -10e-6,2e-5 -1.47236,2.07106 -3.63193,3.55435 -5.85079,4.79283 -3.08302,1.72082 -6.40541,2.97573 -9.76676,4.05627 0,0 -1e-5,0 -2e-5,10e-6 -4.2739,1.37388 -8.64231,2.43826 -13.03695,3.35528 -10e-6,0 -2e-5,1e-5 -3e-5,1e-5 -5.18617,1.08219 -10.4158,1.94837 -15.66152,2.68996 -12.14345,1.71674 -24.3721,2.78215 -36.6137,3.52644 -13.10547,0.79681 -26.23376,1.20153 -39.36311,1.29263 -12.31859,0.0855 -24.6404,-0.10062 -36.94675,-0.65614 -9.8113,-0.44288 -19.62298,-1.07142 -29.3646,-2.31988 -3.4278,-0.4393 -6.84989,-0.95083 -10.22469,-1.69478 -1.24999,-0.27555 -2.49368,-0.58382 -3.71544,-0.96551 -0.91441,-0.28567 -1.82101,-0.60728 -2.67655,-1.03832 -2e-5,-10e-6 -3e-5,-2e-5 -5e-5,-2e-5 -0.4725,-0.23807 -0.88763,-0.627 -1.05478,-1.12899 -0.1754,-0.5268 -0.0975,-1.10689 0.0626,-1.63853 0,-10e-6 10e-6,-2e-5 10e-6,-3e-5 0.5047,-1.67566 1.63918,-3.08506 2.75261,-4.43519 1.56246,-1.89462 3.29056,-3.64613 5.04737,-5.36209 1.92993,-1.88505 3.91171,-3.71614 5.89207,-5.54814 0,-1e-5 1e-5,-1e-5 2e-5,-2e-5 1.7795,-1.64619 3.56657,-3.28533 5.28674,-4.99342 0.67272,-0.668 1.33579,-1.34646 1.96321,-2.05717 1e-5,-10e-6 1e-5,-2e-5 2e-5,-2e-5 0.45798,-0.51878 0.90616,-1.0509 1.26812,-1.64071 0.12398,-0.20201 0.2381,-0.41158 0.31674,-0.63518 0,-2e-5 1e-5,-3e-5 2e-5,-5e-5 0.056,-0.15925 0.0962,-0.32891 0.075,-0.49638 -0.0169,-0.13387 -0.0846,-0.26099 -0.18939,-0.34597 -0.13373,-0.10844 -0.3064,-0.15711 -0.47646,-0.18397 -0.63245,-0.0999 -1.27809,0.0329 -1.90473,0.16435 -1.12878,0.23687 -2.23152,0.58401 -3.32486,0.95124 -4.89307,1.64349 -9.701,3.88085 -13.4549,7.42365 0,10e-6 -1e-5,10e-6 -1e-5,2e-5 -1.46448,1.38213 -2.74305,2.96874 -3.71834,4.7305 -10e-6,10e-6 -2e-5,3e-5 -3e-5,4e-5 -0.92126,1.66417 -1.56535,3.47904 -1.92173,5.34751 -10e-6,1e-5 -10e-6,1e-5 -10e-6,2e-5 -0.78103,4.09487 -0.21519,8.34849 0.91769,12.36028 1.41328,5.00474 3.67908,9.732 6.21848,14.2703 3.06933,5.48539 6.58559,10.70983 10.26224,15.80812 4.17486,5.78912 8.57524,11.41239 13.04901,16.97375 10e-6,10e-6 2e-5,2e-5 3e-5,4e-5 9.70811,12.06816 19.77541,23.84471 29.43021,35.95557 1e-5,10e-6 2e-5,2e-5 3e-5,4e-5 9.20048,11.54096 18.16336,23.34092 25.49309,36.15177 3.15607,5.51614 5.99701,11.23158 8.12761,17.219 1.85099,5.20164 3.16731,10.63411 3.3723,16.15146 0.18657,5.02178 -0.62638,10.1076 -2.64004,14.71175 -1e-5,2e-5 -1e-5,3e-5 -2e-5,5e-5 -2.19178,5.01139 -5.74193,9.35711 -9.90935,12.89978 -5.43767,4.6225 -11.83441,8.00311 -18.43573,10.71573 -2e-5,0 -4e-5,1e-5 -5e-5,2e-5 -9.07032,3.72717 -18.60607,6.22211 -28.21905,8.1594 -0.006,0.001 -0.0123,-0.004 -0.0178,-0.008 -1e-5,-10e-6 -2e-5,-2e-5 -4e-5,-3e-5 -0.0118,-0.008 -0.0227,-0.0175 -0.0334,-0.0271 -1e-5,-10e-6 -2e-5,-2e-5 -4e-5,-3e-5 -0.0396,-0.0353 -0.0764,-0.0735 -0.11316,-0.11177 -10e-6,-10e-6 -2e-5,-2e-5 -3e-5,-3e-5 -0.13985,-0.14584 -0.27342,-0.29756 -0.40662,-0.4495 -0.5088,-0.58037 -1.00264,-1.17368 -1.49463,-1.76837 -1.83512,-2.21817 -3.62465,-4.4737 -5.39891,-6.74085 -6.1706,-7.88481 -12.12267,-15.93962 -17.90843,-24.111 -7.88146,-11.13118 -15.44129,-22.49229 -22.57417,-34.11736 -1e-5,-2e-5 -2e-5,-3e-5 -3e-5,-5e-5 -7.78289,-12.68444 -15.07732,-25.6819 -21.46186,-39.12459 -5.9815,-12.59407 -11.24686,-25.59235 -14.57144,-39.13252 0,-10e-6 0,-3e-5 -10e-6,-5e-5 -1.45157,-5.91189 -2.51699,-11.93135 -2.89616,-18.00702 0,-2e-5 0,-3e-5 0,-5e-5 -0.33664,-5.39427 -0.12796,-10.84707 0.99323,-16.13426 0,-2e-5 1e-5,-3e-5 1e-5,-5e-5 1.02575,-4.83711 2.85465,-9.52738 5.60487,-13.63665 2.83386,-4.23425 6.6309,-7.79358 10.93879,-10.51419 5.17977,-3.27123 11.02614,-5.38685 16.99496,-6.76677 7.77637,-1.79781 15.79193,-2.39446 23.7734,-2.39446"
           id="path4027"
           inkscape:path-effect="#path-effect4029"
           inkscape:original-d="m -288.57143,386.34053 c 40.02544,-8.02969 150.78379,-31.98076 184.87745,2.37346 35.931934,36.20655 -177.86962,36.42472 -200.59174,24.97683 -8.92788,-4.49805 37.55612,-34.68654 15.71429,-27.35029 -94.83372,31.85283 197.396944,192.84036 18.57143,228.8788 -0.84435,0.17016 -174.72273,-213.04442 -28.57143,-213.04442"
           inkscape:connector-curvature="0"
           sodipodi:nodetypes="cssssc"
           transform="matrix(0.99846846,0,0,1,0.5331592,0)" />
        <ellipse
           ry="19.799809"
           rx="11.862116"
           cy="338.91553"
           cx="-388.0401"
           style="color:#000000;display:inline;overflow:visible;visibility:visible;fill:#000000;fill-opacity:1;fill-rule:nonzero;stroke:none;stroke-width:8.3096981;marker:none;enable-background:accumulate"
           id="path4031"
           transform="matrix(0.99410417,0.10842924,-0.10810125,0.99413989,0,0)" />
        <path
           style="color:#000000;display:inline;overflow:visible;visibility:visible;fill:#b3b3b3;fill-opacity:1;fill-rule:nonzero;stroke:#000000;stroke-width:2.99770188;stroke-linecap:square;stroke-linejoin:miter;stroke-miterlimit:4;stroke-dasharray:none;stroke-dashoffset:0;stroke-opacity:1;marker:none;enable-background:accumulate"
           d="m -532.87747,174.03454 181.33554,1e-5 5.61911,21.71827 -189.11353,-1.01015 z"
           id="path4038"
           inkscape:connector-curvature="0"
           sodipodi:nodetypes="ccccc" />
        <ellipse
           cy="522.0321"
           cx="-688.34436"
           style="color:#000000;display:inline;overflow:visible;visibility:visible;fill:#000000;fill-opacity:1;fill-rule:nonzero;stroke:#000000;stroke-width:2.99770188;stroke-linecap:square;stroke-linejoin:miter;stroke-miterlimit:4;stroke-dasharray:none;stroke-dashoffset:0;stroke-opacity:1;marker:none;enable-background:accumulate"
           id="path4051"
           rx="15.12908"
           ry="15.152287" />
        <ellipse
           cy="598.80371"
           cx="-680.27551"
           id="path4053"
           style="color:#000000;display:inline;overflow:visible;visibility:visible;fill:#000000;fill-opacity:1;fill-rule:nonzero;stroke:#000000;stroke-width:2.99770188;stroke-linecap:square;stroke-linejoin:miter;stroke-miterlimit:4;stroke-dasharray:none;stroke-dashoffset:0;stroke-opacity:1;marker:none;enable-background:accumulate"
           rx="15.12908"
           ry="15.152287" />
        <ellipse
           cy="480.61588"
           cx="-447.28769"
           style="color:#000000;display:inline;overflow:visible;visibility:visible;fill:#000000;fill-opacity:1;fill-rule:nonzero;stroke:#000000;stroke-width:2.99770212;stroke-linecap:square;stroke-linejoin:miter;stroke-miterlimit:4;stroke-dasharray:none;stroke-dashoffset:0;stroke-opacity:1;marker:none;enable-background:accumulate"
           id="path4055"
           rx="26.223742"
           ry="26.263966" />
        <ellipse
           cy="580.62097"
           cx="-450.31351"
           id="path4057"
           style="color:#000000;display:inline;overflow:visible;visibility:visible;fill:#000000;fill-opacity:1;fill-rule:nonzero;stroke:#000000;stroke-width:2.99770188;stroke-linecap:square;stroke-linejoin:miter;stroke-miterlimit:4;stroke-dasharray:none;stroke-dashoffset:0;stroke-opacity:1;marker:none;enable-background:accumulate"
           rx="15.12908"
           ry="15.152287" />
        <ellipse
           cy="571.5296"
           cx="-441.23605"
           style="color:#000000;display:inline;overflow:visible;visibility:visible;fill:#000000;fill-opacity:1;fill-rule:nonzero;stroke:#000000;stroke-width:2.99770212;stroke-linecap:square;stroke-linejoin:miter;stroke-miterlimit:4;stroke-dasharray:none;stroke-dashoffset:0;stroke-opacity:1;marker:none;enable-background:accumulate"
           id="path4059"
           rx="24.206532"
           ry="24.243662" />
        <ellipse
           cy="480.61588"
           cx="-447.28769"
           style="color:#000000;display:inline;overflow:visible;visibility:visible;fill:#000000;fill-opacity:1;fill-rule:nonzero;stroke:#000000;stroke-width:2.99770212;stroke-linecap:square;stroke-linejoin:miter;stroke-miterlimit:4;stroke-dasharray:none;stroke-dashoffset:0;stroke-opacity:1;marker:none;enable-background:accumulate"
           id="path4063"
           rx="26.223742"
           ry="26.263966" />
        <ellipse
           cy="474.55493"
           cx="-185.05026"
           style="color:#000000;display:inline;overflow:visible;visibility:visible;fill:#000000;fill-opacity:1;fill-rule:nonzero;stroke:#000000;stroke-width:2.99770212;stroke-linecap:square;stroke-linejoin:miter;stroke-miterlimit:4;stroke-dasharray:none;stroke-dashoffset:0;stroke-opacity:1;marker:none;enable-background:accumulate"
           id="path4065"
           rx="26.223742"
           ry="26.263966" />
        <path
           style="color:#000000;display:inline;overflow:visible;visibility:visible;fill:none;stroke:#000000;stroke-width:2.99770188;stroke-linecap:square;stroke-linejoin:miter;stroke-miterlimit:4;stroke-dasharray:none;stroke-dashoffset:0;stroke-opacity:1;marker:none;enable-background:accumulate"
           d="m -437.2016,344.24524 c 0,0 51.43887,-20.20305 53.45608,-25.25381 2.01722,-5.05076 2.01722,-5.05076 2.01722,-5.05076 l -14.12048,34.34518 -46.39585,-1.01015 3.02581,1.01015"
           id="path4174"
           inkscape:connector-curvature="0" />
        <path
           style="color:#000000;display:inline;overflow:visible;visibility:visible;fill:#800080;fill-opacity:1;fill-rule:nonzero;stroke:#000000;stroke-width:3;marker:none;enable-background:accumulate"
           d="m -555.5839,352.51282 h 152.69855 c 10.32287,0 20.67078,0.30331 30.90033,1.68812 3.51546,0.4759 7.01735,1.08624 10.45007,1.98142 0,0 10e-6,0 10e-6,0 2.53491,0.66105 5.04302,1.46922 7.39386,2.62522 1.66898,0.82071 3.27952,1.82079 4.54557,3.18321 0.94895,1.02118 1.67238,2.2809 1.90519,3.65535 0,10e-6 0,10e-6 0,10e-6 0.2298,1.3567 -0.0184,2.76324 -0.5273,4.0417 -0.63647,1.59904 -1.63714,3.03097 -2.75187,4.34222 -3.17054,3.72946 -7.21731,6.61282 -11.34588,9.24266 -5.65312,3.60095 -11.64762,6.64107 -17.74932,9.41482 -1e-5,0 -2e-5,1e-5 -3e-5,1e-5 -7.34211,3.33763 -14.86824,6.26195 -22.48958,8.90041 -8.41275,2.91243 -16.94783,5.46927 -25.56659,7.69939 -17.60209,4.55456 -35.56904,7.85045 -53.71126,9.04939 -8.26204,0.546 -16.56503,0.64339 -24.81821,-0.0232 -1e-5,0 -2e-5,0 -3e-5,0 -7.19631,-0.58121 -14.37931,-1.72897 -21.24225,-3.97054 -5.79564,-1.89298 -11.40137,-4.60493 -16.00313,-8.6045 -2.10479,-1.82937 -3.98117,-3.92696 -5.51711,-6.25455 -1.55982,-2.36377 -2.76232,-4.96017 -3.58362,-7.6705 0,-1e-5 0,-2e-5 0,-2e-5 -0.90017,-2.97062 -1.34799,-6.06968 -1.4422,-9.17227 -0.10946,-3.60455 0.24861,-7.2143 0.9071,-10.75989 1.73044,-9.31752 5.39711,-18.17904 9.69375,-26.6259"
           id="path4067"
           inkscape:path-effect="#path-effect4069"
           inkscape:original-d="m -555.5839,352.51282 c 50.89952,0 101.79904,0 152.69855,0 202.57571,0 -222.88632,153.81791 -140.9525,-7.25742"
           inkscape:connector-curvature="0"
           transform="matrix(0.99846846,0,0,1,0.5331592,0)" />
        <path
           style="color:#000000;display:inline;overflow:visible;visibility:visible;fill:#552200;fill-opacity:1;stroke:#000000;stroke-width:2.99770188;stroke-linecap:square;stroke-linejoin:miter;stroke-miterlimit:4;stroke-dasharray:none;stroke-dashoffset:0;stroke-opacity:1;marker:none;enable-background:accumulate"
           d="m -552.18263,446.27066 -63.54215,-98.99495 c 0,0 -6.05163,-10.10153 -5.04302,-14.14214 1.0086,-4.04061 -43.37004,-126.26907 -43.37004,-126.26907 l -27.23235,-24.24366 31.26677,11.11168 1.00862,-41.41626 11.09465,51.51778 44.37865,136.3706 68.58516,84.85281 z"
           id="path4186"
           inkscape:connector-curvature="0" />
        <path
           style="color:#000000;display:inline;overflow:visible;visibility:visible;fill:#ff2a2a;fill-opacity:1;fill-rule:nonzero;stroke:#000000;stroke-width:3;marker:none;enable-background:accumulate"
           d="m -637.39479,338.68922 c -10.63079,-26.16016 -24.0309,-51.83103 -44.18303,-71.61131 -7.23093,-7.09751 -15.38884,-13.31467 -24.44327,-17.86199 -7.88841,-3.96172 -16.45213,-6.60405 -25.22233,-7.60699 -8.46476,-0.96801 -17.07929,-0.41932 -25.40976,1.36742 l -10e-6,0 c -8.69255,1.8644 -17.07704,5.03956 -25.00562,9.06125 -17.56668,8.91051 -32.92484,21.7453 -46.43241,36.08165 -1.1141,1.18245 -2.09695,2.5212 -2.66045,4.04497 -0.45329,1.22571 -0.59338,2.57053 -0.35716,3.85584 0.24622,1.33966 0.86451,2.58984 1.64388,3.70694 0,0 0,1e-5 1e-5,1e-5 0.93904,1.34597 2.10417,2.52143 3.34265,3.59828 0,0 0,1e-5 10e-6,1e-5 3.19932,2.78179 6.8695,4.96703 10.57251,7.03142 4.50066,2.50908 9.12543,4.78737 13.74038,7.07946 0,0 10e-6,0 10e-6,0 4.86441,2.41599 9.73234,4.82945 14.49007,7.44927 4.4389,2.44426 8.8039,5.05287 12.82165,8.1409 3.36314,2.5849 6.54595,5.52113 8.73508,9.15433 1.88541,3.12915 2.81556,6.88348 2.23035,10.48957"
           id="path4077"
           inkscape:path-effect="#path-effect4079"
           inkscape:original-d="m -637.39479,338.68922 c -53.15219,-130.79649 -133.54534,-111.22763 -190.69643,-50.56997 -20.86859,22.14901 69.4338,34.51246 64.55899,64.551"
           inkscape:connector-curvature="0"
           transform="matrix(0.99846846,0,0,1,0.5331592,0)" />
        <path
           inkscape:connector-curvature="0"
           id="path4071"
           d="m -665.99138,314.12788 c 8.30084,0 15.5477,4.22974 19.35508,10.48455 1.56713,-0.23958 3.18236,-0.37896 4.85532,-0.37896 12.25836,0 22.20204,6.78664 22.20204,15.15839 0,8.37174 -9.94368,15.15838 -22.20204,15.15838 -4.52846,0 -8.73766,-0.92051 -12.24865,-2.51061 -2.73508,1.62292 -5.89092,2.70028 -9.26925,3.07905 0.21252,0.99607 0.33105,2.01267 0.33105,3.04746 0,11.95964 -14.66445,21.64807 -32.7734,21.64807 -10.22775,0 -19.36686,-3.0958 -25.38008,-7.94236 -3.22914,3.71234 -8.4067,6.73363 -14.72044,8.63712 -2.75015,1.38856 -5.92696,2.1948 -9.33546,2.1948 -0.7674,0 -1.53006,-0.048 -2.27318,-0.12631 -1.24359,0.0815 -2.51536,0.12631 -3.79597,0.12631 -18.66615,0 -33.78861,-8.885 -33.78861,-19.848 0,-10.963 15.12246,-19.84801 33.78861,-19.84801 3.79537,0 7.45261,0.36456 10.85826,1.04214 1.73438,-6.30469 12.2429,-11.14773 24.96075,-11.14773 6.81233,0 12.98482,1.40227 17.52329,3.66328 0.71285,-0.0306 1.43828,-0.0631 2.16283,-0.0631 2.66391,0 5.24466,0.21986 7.72437,0.61581 -0.10014,-0.79286 -0.15449,-1.59808 -0.15449,-2.41587 0,-11.36165 9.92161,-20.57435 22.17997,-20.57435 z"
           style="color:#000000;display:inline;overflow:visible;visibility:visible;fill:#ffffff;fill-opacity:1;fill-rule:nonzero;stroke:#000000;stroke-width:2.99770188;stroke-linecap:square;stroke-linejoin:miter;stroke-miterlimit:4;stroke-dasharray:none;stroke-dashoffset:0;stroke-opacity:1;marker:none;enable-background:accumulate" />
        <path
           sodipodi:type="star"
           style="color:#000000;display:inline;overflow:visible;visibility:visible;fill:#ffffff;fill-opacity:1;fill-rule:nonzero;stroke:#000000;stroke-width:3;stroke-linecap:square;stroke-linejoin:miter;stroke-miterlimit:4;stroke-dasharray:none;stroke-dashoffset:0;stroke-opacity:1;marker:none;enable-background:accumulate"
           id="path4081"
           sodipodi:sides="12"
           sodipodi:cx="-848.52814"
           sodipodi:cy="296.76807"
           sodipodi:r1="47.680912"
           sodipodi:r2="22.886839"
           sodipodi:arg1="0.93576959"
           sodipodi:arg2="1.197569"
           inkscape:flatsided="false"
           inkscape:rounded="0"
           inkscape:randomized="0"
           d="m -820.24387,335.15386 -19.93921,-17.07459 -3.04306,26.07401 -8.73057,-24.75664 -15.67237,21.05922 4.81743,-25.80516 -24.10228,10.40164 17.07459,-19.93922 -26.07401,-3.04305 24.75664,-8.73058 -21.05922,-15.67236 25.80516,4.81742 -10.40164,-24.10228 19.93922,17.07459 3.04305,-26.074 8.73057,24.75663 15.67237,-21.05922 -4.81742,25.80516 24.10228,-10.40163 -17.07459,19.93921 26.074,3.04306 -24.75663,8.73057 21.05922,15.67237 -25.80516,-4.81743 z"
           transform="matrix(0.99846846,0,0,1,0.5331592,0)" />
        <path
           style="color:#000000;display:inline;overflow:visible;visibility:visible;fill:#ffffff;fill-opacity:1;fill-rule:nonzero;stroke:#000000;stroke-width:2.99770188;stroke-linecap:square;stroke-linejoin:miter;stroke-miterlimit:4;stroke-dasharray:none;stroke-dashoffset:0;stroke-opacity:1;marker:none;enable-background:accumulate"
           d="m -383.03111,201.22144 h 63.14604 l -34.58412,-46.96354 z"
           id="path4095"
           inkscape:connector-curvature="0"
           sodipodi:nodetypes="cccc" />
        <path
           sodipodi:nodetypes="cccc"
           inkscape:connector-curvature="0"
           id="path4097"
           d="m -322.7125,170.30461 h -63.14604 l 34.58411,46.96354 z"
           style="color:#000000;display:inline;overflow:visible;visibility:visible;fill:#ffffff;fill-opacity:1;fill-rule:nonzero;stroke:#000000;stroke-width:2.99770188;stroke-linecap:square;stroke-linejoin:miter;stroke-miterlimit:4;stroke-dasharray:none;stroke-dashoffset:0;stroke-opacity:1;marker:none;enable-background:accumulate" />
        <path
           style="color:#000000;display:inline;overflow:visible;visibility:visible;fill:#ffffff;fill-opacity:1;fill-rule:nonzero;stroke:#000000;stroke-width:2.99770188;stroke-linecap:square;stroke-linejoin:miter;stroke-miterlimit:4;stroke-dasharray:none;stroke-dashoffset:0;stroke-opacity:1;marker:none;enable-background:accumulate"
           d="m -368.89392,160.86537 h -36.69214 l 20.09574,27.14114 z"
           id="path4099"
           inkscape:connector-curvature="0"
           sodipodi:nodetypes="cccc" />
        <path
           sodipodi:nodetypes="cccc"
           inkscape:connector-curvature="0"
           id="path4101"
           d="m -333.07974,211.83727 h -36.69214 l 20.09573,27.14113 z"
           style="color:#000000;display:inline;overflow:visible;visibility:visible;fill:#ffffff;fill-opacity:1;fill-rule:nonzero;stroke:#000000;stroke-width:2.99770188;stroke-linecap:square;stroke-linejoin:miter;stroke-miterlimit:4;stroke-dasharray:none;stroke-dashoffset:0;stroke-opacity:1;marker:none;enable-background:accumulate" />
        <path
           style="color:#000000;display:inline;overflow:visible;visibility:visible;fill:#ffffff;fill-opacity:1;fill-rule:nonzero;stroke:#000000;stroke-width:2.99770188;stroke-linecap:square;stroke-linejoin:miter;stroke-miterlimit:4;stroke-dasharray:none;stroke-dashoffset:0;stroke-opacity:1;marker:none;enable-background:accumulate"
           d="m -300.09298,159.92144 h -36.69214 l 20.09573,27.14114 z"
           id="path4103"
           inkscape:connector-curvature="0"
           sodipodi:nodetypes="cccc" />
        <path
           sodipodi:nodetypes="cccc"
           inkscape:connector-curvature="0"
           id="path4105"
           d="m -366.32974,211.05196 -28.78636,-22.78702 -1.03812,33.77335 z"
           style="color:#000000;display:inline;overflow:visible;visibility:visible;fill:#ffffff;fill-opacity:1;fill-rule:nonzero;stroke:#000000;stroke-width:2.99770188;stroke-linecap:square;stroke-linejoin:miter;stroke-miterlimit:4;stroke-dasharray:none;stroke-dashoffset:0;stroke-opacity:1;marker:none;enable-background:accumulate" />
        <path
           style="color:#000000;display:inline;overflow:visible;visibility:visible;fill:#ffffff;fill-opacity:1;fill-rule:nonzero;stroke:#000000;stroke-width:2.99770188;stroke-linecap:square;stroke-linejoin:miter;stroke-miterlimit:4;stroke-dasharray:none;stroke-dashoffset:0;stroke-opacity:1;marker:none;enable-background:accumulate"
           d="m -337.92279,156.08382 -19.91641,-30.86368 -11.85207,31.6357 z"
           id="path4107"
           inkscape:connector-curvature="0"
           sodipodi:nodetypes="cccc" />
        <path
           sodipodi:nodetypes="cccc"
           inkscape:connector-curvature="0"
           id="path4109"
           d="m -299.93559,218.53765 -13.05251,-34.34468 -18.17832,28.46497 z"
           style="color:#000000;display:inline;overflow:visible;visibility:visible;fill:#ffffff;fill-opacity:1;fill-rule:nonzero;stroke:#000000;stroke-width:2.99770188;stroke-linecap:square;stroke-linejoin:miter;stroke-miterlimit:4;stroke-dasharray:none;stroke-dashoffset:0;stroke-opacity:1;marker:none;enable-background:accumulate" />
        <path
           style="color:#000000;display:inline;overflow:visible;visibility:visible;fill:#ffffff;fill-opacity:1;fill-rule:nonzero;stroke:#000000;stroke-width:2.99770188;stroke-linecap:square;stroke-linejoin:miter;stroke-miterlimit:4;stroke-dasharray:none;stroke-dashoffset:0;stroke-opacity:1;marker:none;enable-background:accumulate"
           d="m -299.93559,218.53765 -13.05251,-34.34468 -18.17832,28.46497 z"
           id="path4111"
           inkscape:connector-curvature="0"
           sodipodi:nodetypes="cccc" />
        <path
           style="color:#000000;display:inline;overflow:visible;visibility:visible;fill:#ffffff;fill-opacity:1;fill-rule:nonzero;stroke:#000000;stroke-width:2.99770188;stroke-linecap:square;stroke-linejoin:miter;stroke-miterlimit:4;stroke-dasharray:none;stroke-dashoffset:0;stroke-opacity:1;marker:none;enable-background:accumulate"
           d="m -333.07974,175.96815 h -36.69214 l 20.09573,27.14114 z"
           id="path4113"
           inkscape:connector-curvature="0"
           sodipodi:nodetypes="cccc" />
        <ellipse
           ry="18.182745"
           rx="11.598963"
           cy="300.80869"
           cx="-241.02785"
           style="color:#000000;display:inline;overflow:visible;visibility:visible;fill:#000000;fill-opacity:1;fill-rule:nonzero;stroke:#000000;stroke-width:2.99770188;stroke-linecap:square;stroke-linejoin:miter;stroke-miterlimit:4;stroke-dasharray:none;stroke-dashoffset:0;stroke-opacity:1;marker:none;enable-background:accumulate"
           id="path4127" />
        <ellipse
           ry="18.182745"
           rx="11.598963"
           cy="288.68686"
           cx="-170.42546"
           id="path4129"
           style="color:#000000;display:inline;overflow:visible;visibility:visible;fill:#000000;fill-opacity:1;fill-rule:nonzero;stroke:#000000;stroke-width:2.99770188;stroke-linecap:square;stroke-linejoin:miter;stroke-miterlimit:4;stroke-dasharray:none;stroke-dashoffset:0;stroke-opacity:1;marker:none;enable-background:accumulate" />
        <path
           style="color:#000000;display:inline;overflow:visible;visibility:visible;fill:#000000;fill-opacity:1;fill-rule:nonzero;stroke:#cccccc;stroke-width:2.99770188;stroke-linecap:square;stroke-linejoin:miter;stroke-miterlimit:4;stroke-dasharray:none;stroke-dashoffset:0;stroke-opacity:1;marker:none;enable-background:accumulate"
           d="M -263.01791,201.63089 -243.95422,14.439641 -63.631747,50.598252 -147.92789,212.19392 Z"
           id="path4133"
           inkscape:connector-curvature="0" />
        <path
           style="color:#000000;display:inline;overflow:visible;visibility:visible;fill:#552200;fill-opacity:1;fill-rule:nonzero;stroke:#000000;stroke-width:2.99770188;stroke-linecap:square;stroke-linejoin:miter;stroke-miterlimit:4;stroke-dasharray:none;stroke-dashoffset:0;stroke-opacity:1;marker:none;enable-background:accumulate"
           d="m -98.310175,447.28081 53.456088,-122.22846 c 0,0 21.180715,7.07107 15.129083,-4.04061 -6.051634,-11.11168 -23.197926,-20.20305 -23.197926,-20.20305 l -27.232348,-112.12693 -46.395852,19.19289 40.34422,-8.08122 -23.19793,35.35534 27.232352,-20.20305 20.172109,102.02541 -49.421661,114.14724 z"
           id="path4135"
           inkscape:connector-curvature="0" />
        <path
           style="color:#000000;display:inline;overflow:visible;visibility:visible;fill:#803300;fill-opacity:1;fill-rule:nonzero;stroke:#000000;stroke-width:2.99770188;stroke-linecap:square;stroke-linejoin:miter;stroke-miterlimit:4;stroke-dasharray:none;stroke-dashoffset:0;stroke-opacity:1;marker:none;enable-background:accumulate"
           d="m -827.01519,449.69639 v 46.64269 c 0,0 -17.20744,15.02053 -3.12862,16.60164 14.07881,1.58111 10.16803,-3.16221 14.86096,1.58111 4.69294,4.74333 45.36508,16.60164 45.36508,16.60164 l 10.97102,-18.18275 -54.77178,-13.43942 -6.25725,-59.29156 -14.86098,9.48665 v 0 -0.79056"
           id="path4164"
           inkscape:connector-curvature="0"
           sodipodi:nodetypes="ccssccccccc" />
        <path
           sodipodi:nodetypes="cssssscsc"
           inkscape:connector-curvature="0"
           inkscape:original-d="m -817.82156,425.71982 c -0.15947,-2.33711 -1.84665,-24.84043 -5.6412,-26.38298 -4.76594,-1.9374 0.12724,23.62929 -2.07576,20.69527 -14.06527,-18.73253 -21.11275,-40.33902 -29.54476,-37.17465 -15.06955,5.65531 -0.65314,14.14414 11.69325,32.0167 7.32754,10.6073 -12.63936,-13.25688 -37.50844,-14.51245 -22.36819,-1.12928 23.67635,26.52589 29.70718,31.91496 0.0481,0.043 -22.92054,-9.33604 -32.14764,5.63915 -4.68068,7.59663 48.1447,28.40663 64.16821,-11.95287"
           inkscape:path-effect="#path-effect3981"
           id="path4158"
           d="m -817.82156,425.71982 c -0.30795,-4.51318 -0.78681,-9.01576 -1.45744,-13.48945 -0.42644,-2.84467 -0.9131,-5.68927 -1.72392,-8.44908 -0.29867,-1.0166 -0.63568,-2.029 -1.13453,-2.96378 -0.31766,-0.59525 -0.70028,-1.22658 -1.32531,-1.48067 0,0 -10e-6,0 -10e-6,0 -0.24842,-0.10099 -0.53168,-0.14405 -0.7845,-0.0546 -0.24745,0.0875 -0.44071,0.2872 -0.58267,0.50796 -0.44775,0.69632 -0.56074,1.55344 -0.65799,2.37555 -0.30943,2.61562 -0.13392,5.26349 0.0262,7.89248 0,0 0,0 0,1e-5 0.15648,2.56939 0.4087,5.13331 0.50674,7.7056 0,0 0,0 0,10e-6 0.0273,0.71497 0.0886,1.44149 -0.0573,2.14195 -0.0177,0.0847 -0.0393,0.16976 -0.0799,0.24618 0,0 -10e-6,0 -10e-6,1e-5 -0.0253,0.0475 -0.0607,0.0947 -0.1123,0.10995 -0.0503,0.0149 -0.10435,-0.007 -0.14774,-0.0365 -0.0743,-0.0505 -0.1323,-0.12143 -0.18625,-0.19328 -3.39864,-4.52641 -6.449,-9.30455 -9.3644,-14.15631 -10e-6,-1e-5 -10e-6,-1e-5 -10e-6,-2e-5 -2.52557,-4.20302 -4.92906,-8.47957 -7.52044,-12.64233 -1.8918,-3.03895 -3.81224,-6.1323 -6.46422,-8.53668 -0.90344,-0.8191 -1.91936,-1.55139 -3.08218,-1.91881 -1.00937,-0.31893 -2.12244,-0.29243 -3.11351,0.0795 -1.53121,0.57463 -3.04685,1.253 -4.33056,2.26636 0,0 0,0 -10e-6,0 -0.86334,0.68152 -1.61297,1.55735 -1.93604,2.60875 -0.30103,0.97971 -0.20551,2.04615 0.0887,3.02793 0.37737,1.25941 1.03127,2.41878 1.74358,3.52383 0,10e-6 10e-6,10e-6 10e-6,10e-6 2.03493,3.15692 4.55776,5.96588 6.97274,8.8425 3.19328,3.8037 6.3321,7.6611 9.15486,11.74732 0.36343,0.52609 0.72501,1.05391 1.05952,1.59884 0.17209,0.28034 0.35916,0.55915 0.45262,0.87453 0.0186,0.0627 0.0397,0.13407 0.009,0.19178 -0.023,0.0432 -0.0821,0.0492 -0.13046,0.0421 -0.24436,-0.036 -0.45309,-0.19278 -0.66281,-0.32325 -0.97554,-0.6069 -1.88701,-1.31056 -2.81835,-1.98331 0,0 -10e-6,-1e-5 -10e-6,-1e-5 -1.51329,-1.09312 -3.03743,-2.17165 -4.58996,-3.20828 -4.26265,-2.8462 -8.73281,-5.39978 -13.44518,-7.41588 -5.5157,-2.3598 -11.39111,-3.98642 -17.38277,-4.28892 -1.14073,-0.0576 -2.29084,-0.0666 -3.4188,0.11311 -0.69755,0.11117 -1.41105,0.28659 -1.97419,0.71297 -0.38913,0.29463 -0.65593,0.75104 -0.68844,1.23805 0,0 0,1e-5 0,1e-5 -0.0392,0.58685 0.17442,1.16279 0.43851,1.68832 0.85984,1.71105 2.24785,3.09528 3.62253,4.42842 0,10e-6 0,10e-6 10e-6,10e-6 1.96206,1.90278 4.07589,3.6427 6.22434,5.33221 4.90832,3.85984 10.03738,7.42913 15.17169,10.98283 2.13852,1.48017 4.2838,2.95077 6.4061,4.45411 l 0,0 c 0,10e-6 10e-6,10e-6 10e-6,10e-6 1.3386,0.94821 2.70222,1.87187 3.92542,2.96491 -0.005,-0.001 -0.005,-0.001 -0.005,-0.001 -0.004,-0.002 -0.009,-0.003 -0.0132,-0.005 0,0 -10e-6,0 -10e-6,0 -0.017,-0.006 -0.0339,-0.0127 -0.0508,-0.0191 -0.0653,-0.0247 -0.13071,-0.0494 -0.19618,-0.0739 -0.24811,-0.0925 -0.49741,-0.18184 -0.74756,-0.26866 -10e-6,-1e-5 -2e-5,-1e-5 -2e-5,-1e-5 -0.89998,-0.31236 -1.8107,-0.59352 -2.72848,-0.84889 -2.90393,-0.80799 -5.8829,-1.36467 -8.89044,-1.56579 -3.57793,-0.23927 -7.23422,0.0301 -10.61158,1.23523 -3.66474,1.30766 -6.86341,3.87363 -8.90456,7.18633 -0.28348,0.46009 -0.35228,1.0354 -0.22676,1.56104 0,0 10e-6,1e-5 10e-6,1e-5 0.15758,0.65989 0.5452,1.24342 0.9829,1.76178 1.35125,1.60031 3.18817,2.71546 5.04216,3.68992 2.60666,1.37005 5.38715,2.39192 8.22302,3.18532 3.36196,0.94058 6.81761,1.5455 10.2987,1.80904 l 2e-5,0 c 7.65792,0.57975 15.55,-0.53244 22.40374,-3.9974 3.7235,-1.88245 7.09422,-4.45702 9.89471,-7.54981 3.26806,-3.60916 5.75307,-7.88746 7.54971,-12.41277"
           style="color:#000000;display:inline;overflow:visible;visibility:visible;fill:#a02c89;fill-opacity:1;fill-rule:nonzero;stroke:#000000;stroke-width:3;marker:none;enable-background:accumulate"
           transform="matrix(0.99846846,0,0,1,0.5331592,0)" />
        <path
           inkscape:connector-curvature="0"
           id="path4160"
           d="m -824.69551,429.34186 c 6.79845,-5.11243 14.96901,-5.70967 18.25115,-1.33171 2.72246,3.6314 1.22661,9.54132 -3.243,14.36989 0.0786,3.53146 -1.75097,7.30239 -5.15732,9.86396 -1.61868,1.21724 -3.41096,2.01272 -5.19731,2.40191 -0.99773,1.12825 -2.14881,2.1984 -3.4521,3.17848 -3.07225,2.31032 -6.42901,3.69589 -9.48422,4.11919 -0.0954,1.39092 -0.58424,2.52831 -1.51175,3.22579 -2.58989,1.9476 -7.5426,-0.27174 -11.06786,-4.97399 -3.52526,-4.70225 -4.28125,-10.09759 -1.69137,-12.04519 1.46336,-1.10044 3.67919,-0.86782 5.9688,0.39241 1.32369,-2.34746 3.33797,-4.63929 5.90345,-6.56853 1.04803,-0.78811 2.11873,-1.45984 3.20909,-2.0316 0.79569,-3.62107 3.43586,-7.56511 7.47244,-10.60061 z"
           style="color:#000000;display:inline;overflow:visible;visibility:visible;fill:#cccccc;fill-opacity:1;fill-rule:nonzero;stroke:#000000;stroke-width:2.99770188;stroke-linecap:square;stroke-linejoin:miter;stroke-miterlimit:4;stroke-dasharray:none;stroke-dashoffset:0;stroke-opacity:1;marker:none;enable-background:accumulate" />
        <ellipse
           ry="22.728432"
           rx="18.659201"
           cy="506.37473"
           cx="27.261204"
           style="color:#000000;display:inline;overflow:visible;visibility:visible;fill:#000000;fill-opacity:1;fill-rule:nonzero;stroke:#000000;stroke-width:2.99770188;stroke-linecap:square;stroke-linejoin:miter;stroke-miterlimit:4;stroke-dasharray:none;stroke-dashoffset:0;stroke-opacity:1;marker:none;enable-background:accumulate"
           id="path4166" />
        <ellipse
           ry="21.718279"
           rx="16.641991"
           cy="595.26813"
           cx="36.338654"
           style="color:#000000;display:inline;overflow:visible;visibility:visible;fill:#000000;fill-opacity:1;fill-rule:nonzero;stroke:#000000;stroke-width:2.99770188;stroke-linecap:square;stroke-linejoin:miter;stroke-miterlimit:4;stroke-dasharray:none;stroke-dashoffset:0;stroke-opacity:1;marker:none;enable-background:accumulate"
           id="path4168" />
        <path
           style="color:#000000;display:inline;overflow:visible;visibility:visible;fill:#ff0000;fill-opacity:1;fill-rule:nonzero;stroke:#000000;stroke-width:2.99770188;stroke-linecap:square;stroke-linejoin:miter;stroke-miterlimit:4;stroke-dasharray:none;stroke-dashoffset:0;stroke-opacity:1;marker:none;enable-background:accumulate"
           d="m -254.64402,124.03199 143.22198,21.21321 -10.08606,19.1929 -135.15313,-15.15229 z"
           id="path4170"
           inkscape:connector-curvature="0" />
        <path
           style="color:#000000;display:inline;overflow:visible;visibility:visible;fill:#000000;fill-opacity:1;fill-rule:nonzero;stroke:none;stroke-width:3;marker:none;enable-background:accumulate"
           d="M -550.53314,432.12852 -627.30473,301.81884"
           id="path4178"
           inkscape:path-effect="#path-effect4180"
           inkscape:original-d="M -550.53314,432.12852 -627.30473,301.81884"
           inkscape:connector-curvature="0"
           transform="matrix(0.99846846,0,0,1,0.5331592,0)" />
        <path
           style="color:#000000;display:inline;overflow:visible;visibility:visible;fill:#000000;fill-opacity:1;fill-rule:nonzero;stroke:#cccccc;stroke-width:2.99770188;stroke-linecap:square;stroke-linejoin:miter;stroke-miterlimit:4;stroke-dasharray:none;stroke-dashoffset:0;stroke-opacity:1;marker:none;enable-background:accumulate"
           d="M -306.50949,216.2562 -80.690962,234.14029 -85.500328,208.8408 -302.33848,196.46396 Z"
           id="path4131"
           inkscape:connector-curvature="0" />
        <path
           style="color:#000000;display:inline;overflow:visible;visibility:visible;fill:#800080;fill-opacity:1;fill-rule:nonzero;stroke:#000000;stroke-width:3;marker:none;enable-background:accumulate"
           d="m -533.36054,407.88486 c -4.14331,7.78435 -9.95579,14.54806 -16.02994,20.94085 -6.13819,6.46019 -12.61037,12.6194 -18.31525,19.46525 -2.84305,3.41166 -5.84843,6.68566 -8.68079,10.1062 0,0 0,1e-5 -10e-6,1e-5 -2.57066,3.1045 -5.03974,6.33824 -6.79928,9.96458 0,0 0,1e-5 -1e-5,1e-5 -1.58438,3.26536 -2.48375,6.92783 -2.08971,10.53581 0.47741,4.37144 2.70092,8.38599 5.44797,11.8198 4.43408,5.5426 9.58301,10.53635 15.41853,14.57717 5.31465,3.68014 11.18063,6.54552 17.31189,8.59408 l 4e-5,0 c 12.80519,4.27843 26.49949,5.11302 40.00052,5.11302 1e-5,0 3e-5,0 4e-5,0 3.07973,0 6.14236,-0.42876 9.21577,-0.62592 10e-6,0 2e-5,0 2e-5,0 3.0077,-0.19294 6.10771,-0.32715 8.96692,0.62592 5.72282,1.90761 10.76691,5.38346 16.16244,8.08122 0.40091,0.20045 0.6799,0.6035 0.76233,1.04408 0.0968,0.51732 0.0168,1.05115 -0.0847,1.56758 -0.22632,1.15199 -0.67762,2.27522 -0.67763,3.44923 0,1e-5 0,1e-5 0,2e-5 0,4.1014 -1.22928,8.1674 -3.35176,11.6769 -2.1799,3.60444 -5.17941,6.65751 -8.44837,9.31417 -6.79226,5.52004 -14.71661,9.4399 -22.54506,13.35412 -0.85559,0.4278 -1.80004,0.64383 -2.72691,0.88038 -1.48347,0.3786 -2.98072,0.7007 -4.47792,1.02067 -10e-6,0 -2e-5,1e-5 -2e-5,1e-5 -3.87193,0.82748 -7.75374,1.6126 -11.60189,2.54443 -3.66322,0.88704 -7.33633,1.83084 -10.78477,3.35212 -2e-5,10e-6 -3e-5,10e-6 -4e-5,2e-5 -1.22688,0.54124 -2.44418,1.15101 -3.4566,2.03032 -0.37139,0.32257 -0.71319,0.68672 -0.95919,1.11271 -0.20721,0.3588 -0.33784,0.76684 -0.33784,1.18117 0,0.34399 0.0765,0.70187 0.29594,0.96675 10e-6,0 10e-6,10e-6 2e-5,10e-6 0.20087,0.24243 0.5021,0.38297 0.80887,0.45376 1e-5,1e-5 2e-5,1e-5 2e-5,1e-5 0.87885,0.20281 1.79879,0.019 2.68322,-0.15784 1.11377,-0.22275 2.20962,-0.5261 3.31456,-0.78918 10e-6,0 2e-5,0 2e-5,0 0.98655,-0.2349 1.98475,-0.47351 2.99887,-0.47351 3.74179,0 7.46931,0.42662 11.20549,0.63132 3.68679,0.20198 7.4358,0.2642 11.01787,-0.63132 0.53906,-0.13476 1.03467,-0.40279 1.52762,-0.6592 1e-5,0 1e-5,-10e-6 2e-5,-10e-6 0.75505,-0.39275 1.49291,-0.81757 2.23157,-1.24034 10e-6,-10e-6 3e-5,-2e-5 4e-5,-2e-5 1.88949,-1.08146 3.77829,-2.16843 5.73733,-3.11812 1.92701,-0.93417 3.92456,-1.79016 6.0398,-2.1245 0.86391,-0.13656 1.75354,-0.17713 2.6097,0.002 10e-6,0 2e-5,0 2e-5,0 0.76906,0.1606 1.5014,0.52407 2.05694,1.07961 0,0 10e-6,10e-6 10e-6,10e-6 0.93634,0.93634 1.64892,2.13841 1.80408,3.45347 0.14715,1.24716 -0.17844,2.51055 -0.69172,3.65667 -1.28975,2.87996 -3.51236,5.22548 -5.63167,7.56345 0,10e-6 -1e-5,10e-6 -1e-5,2e-5 -2.10477,2.32193 -4.36833,4.56211 -5.89739,7.2977 0,10e-6 0,10e-6 -1e-5,2e-5 -0.57202,1.02339 -1.03223,2.15212 -1.02386,3.3245 0.008,1.12141 0.54607,2.19546 1.33905,2.98844 0.28285,0.28285 0.67851,0.4332 1.07662,0.47212 0.51334,0.0502 1.03088,-0.0474 1.52703,-0.1884 1.48396,-0.42163 2.83541,-1.21276 4.1415,-2.03375 3.8659,-2.43004 7.35786,-5.40714 10.7863,-8.4231 3.63216,-3.19514 7.14863,-6.51992 10.60688,-9.90252 2.08859,-2.04292 4.14098,-4.12244 6.20686,-6.18832 10e-6,-1e-5 2e-5,-2e-5 3e-5,-3e-5 2.6965,-2.69651 5.07104,-5.73997 8.08119,-8.08119 2.72288,-2.11779 5.50372,-4.20755 8.60342,-5.72115 0.87611,-0.42781 1.78354,-0.80969 2.73837,-1.00685 2e-5,0 3e-5,0 4e-5,-10e-6 0.61935,-0.12788 1.27323,-0.17838 1.87762,0.008 2e-5,0 3e-5,0 4e-5,10e-6 0.4668,0.14377 0.87787,0.45301 1.15319,0.85645 0.31039,0.45484 0.47088,0.99663 0.56483,1.53921 10e-6,10e-6 10e-6,3e-5 10e-6,4e-5 0.25473,1.47117 0.0945,2.98172 -0.0907,4.46324 -0.21779,1.74194 -0.53748,3.46932 -0.81014,5.20352 -0.2404,1.52904 -0.48323,3.06927 -0.44026,4.61649 0,2e-5 0,3e-5 0,4e-5 0.0157,0.56642 0.0704,1.13906 0.25898,1.67338 0.14478,0.41009 0.3898,0.80054 0.75991,1.02889 1e-5,10e-6 2e-5,2e-5 3e-5,2e-5 0.40935,0.25254 0.92057,0.28401 1.39707,0.21854 0.76235,-0.10475 1.48208,-0.41361 2.17035,-0.75775 1.07601,-0.53801 1.83437,-1.60804 2.08015,-2.78569 0.28672,-1.37385 0.10509,-2.80206 -0.14711,-4.18266 -0.56335,-3.08381 -1.7375,-6.06536 -1.93304,-9.19409 -0.58926,-9.42813 -1.78591,-18.82203 -3.63725,-28.08537 0,-10e-6 0,-2e-5 -10e-6,-4e-5 -0.94475,-4.72714 -2.06895,-9.42585 -3.59604,-13.9982 -1.22191,-3.65858 -2.64656,-7.30556 -4.88853,-10.44432 -2.0186,-2.82605 -4.95798,-4.84605 -7.8911,-6.70565 -1e-5,-10e-6 -2e-5,-10e-6 -3e-5,-2e-5 -2.78545,-1.76597 -5.73766,-3.30478 -8.27132,-5.41616 -0.39291,-0.32743 -0.64638,-0.79051 -0.91928,-1.22308 0,-1e-5 -1e-5,-2e-5 -2e-5,-4e-5 -0.40492,-0.64184 -0.78268,-1.30036 -1.16423,-1.95637 -1e-5,-10e-6 -1e-5,-2e-5 -2e-5,-3e-5 -0.36813,-0.63294 -0.7334,-1.26807 -1.13263,-1.88188 -0.237,-0.36438 -0.43564,-0.80513 -0.82443,-0.99952 -18.35804,-9.17901 -37.35047,-17.03689 -56.56854,-24.24366 -4.49004,-1.68377 -9.34677,-2.0203 -14.14213,-2.0203 -10e-6,0 -3e-5,0 -4e-5,0 -0.80613,1e-5 -1.57554,0.31913 -2.36562,0.47916 -0.34686,0.0702 -0.70657,0.13064 -1.05333,0.0599 -0.28318,-0.0578 -0.53023,-0.26486 -0.62162,-0.53905 -0.96935,-2.90806 -1.47693,-5.98385 -1.33269,-9.04582 0.13085,-2.77806 0.8008,-5.5221 1.8919,-8.08027 2.28327,-5.35329 6.22945,-9.8368 10.51181,-13.77792 4.54943,-4.18692 9.57144,-7.82271 14.57274,-11.4579 4.39946,-3.19776 8.8962,-6.32019 12.74203,-10.16603 0.21403,-0.21403 0.31722,-0.51429 0.44522,-0.78858 0.20362,-0.43635 0.39107,-0.88004 0.58161,-1.32225 10e-6,-2e-5 10e-6,-3e-5 2e-5,-4e-5 0.18465,-0.42853 0.36769,-0.85805 0.57326,-1.27695 0.0736,-0.14995 0.14926,-0.29923 0.23826,-0.44057 0,-1e-5 1e-5,-2e-5 2e-5,-3e-5 0.0501,-0.0796 0.0978,-0.17014 0.18192,-0.21219 1.06182,-0.53091 2.29019,-0.57657 3.4657,-0.74246 0.53397,-0.0753 1.07235,-0.16577 1.56875,-0.37647 0.42849,-0.18188 0.81829,-0.48502 1.02646,-0.90137 0.45713,-0.91427 0.728,-1.97294 0.47265,-2.96271 0,-10e-6 0,-3e-5 -10e-6,-4e-5 -0.22946,-0.88939 -0.86658,-1.62751 -1.60912,-2.16817 -2.0815,-1.51559 -4.74544,-1.9741 -7.30181,-2.28184 -1e-5,0 -2e-5,-1e-5 -4e-5,-1e-5 -3.03144,-0.36493 -6.1028,-0.3677 -9.14354,-0.0907 -1.31293,0.11961 -2.62239,0.29381 -3.91134,0.57074 -0.94258,0.2025 -1.88815,0.44065 -2.75045,0.8718 -3.51358,1.7568 -6.73303,4.03982 -10.10152,6.06092 z"
           id="path4145"
           inkscape:path-effect="#path-effect4147"
           inkscape:original-d="m -533.36054,407.88486 c -8.28544,15.5665 -23.01267,26.80708 -34.34519,40.4061 -11.57177,13.88612 -25.66785,25.49389 -12.12183,42.42641 19.2621,24.07763 43.77537,28.28427 72.73098,28.28427 5.33924,0 13.1754,-1.66912 18.18275,0 6.25919,2.0864 11.93204,5.96602 16.16244,8.08122 1.80701,0.90351 0,4.04061 0,6.06091 0,17.3459 -20.01861,27.1819 -34.34519,34.34519 -4.35773,2.17887 -34.34518,5.63515 -34.34518,12.12183 0,3.36718 6.73435,0 10.10152,0 6.9842,0 15.48933,1.68351 22.22336,0 2.94889,-0.73722 15.64097,-10.62299 20.20305,-6.06091 8.85842,8.85842 -17.54273,20.84307 -10.10153,28.28427 4.42363,4.42362 30.87852,-22.7973 34.34519,-26.26397 2.69374,-2.69374 5.07416,-5.7424 8.08122,-8.08122 29.2272,-22.73226 4.30338,19.06152 18.18275,12.12183 4.8187,-2.40935 0.33606,-10.78545 0,-16.16244 -0.95244,-15.23893 -4.7063,-42.14618 -12.12183,-52.52793 -3.77961,-5.29146 -11.87584,-8.54966 -16.16245,-12.12183 -0.93951,-0.78293 -3.26975,-5.67549 -4.04061,-6.06092 -18.93873,-9.46936 -36.66595,-16.78019 -56.56854,-24.24366 -5.36551,-2.01207 -8.88306,-2.0203 -14.14213,-2.0203 -1.34687,0 -3.6147,1.27775 -4.04061,0 -8.50795,-25.52384 25.2354,-39.37754 38.38579,-52.52794 0.43837,-0.43836 1.62641,-3.84366 2.02031,-4.04061 2.02341,-1.0117 5.19814,-0.29475 6.06091,-2.0203 4.51651,-9.03301 -18.93739,-8.71405 -24.24366,-6.06092 -3.51221,1.75611 -6.73435,4.04061 -10.10152,6.06092 z"
           inkscape:connector-curvature="0"
           transform="matrix(0.99846846,0,0,1,0.5331592,0)" />
        <g
           id="g3185"
           transform="matrix(0.62694534,0,0,0.627907,370.70178,310.16631)">
          <path
             inkscape:connector-curvature="0"
             id="path3172"
             d="m -829.7492,-232.5178 -40.4061,2.0203 30.30457,-34.34518 -42.4264,4.04061 22.22335,-40.40611 52.52793,16.16244 -24.24366,18.18275 36.36549,28.28427 z"
             style="color:#000000;display:inline;overflow:visible;visibility:visible;opacity:0.8918919;fill:#008000;fill-opacity:1;fill-rule:nonzero;stroke:none;stroke-width:3;marker:none;enable-background:accumulate" />
          <g
             transform="matrix(0.70689655,0,0,0.70689655,-43.714637,-149.93929)"
             id="g3180">
            <ellipse
               ry="17.172594"
               rx="16.162441"
               cy="-120.92625"
               cx="-222.23355"
               style="color:#000000;display:inline;overflow:visible;visibility:visible;opacity:0.8918919;fill:#d40000;fill-opacity:1;fill-rule:nonzero;stroke:none;stroke-width:3;marker:none;enable-background:accumulate"
               id="path3174"
               transform="translate(-896.41927,12.657204)" />
            <ellipse
               ry="20.203051"
               rx="17.172594"
               cy="-148.20036"
               cx="-213.14218"
               style="color:#000000;display:inline;overflow:visible;visibility:visible;opacity:0.8918919;fill:#d40000;fill-opacity:1;fill-rule:nonzero;stroke:none;stroke-width:3;marker:none;enable-background:accumulate"
               id="path3176"
               transform="translate(-896.41927,12.657204)" />
            <ellipse
               ry="11.111678"
               rx="16.162441"
               cy="-131.02777"
               cx="-195.96959"
               style="color:#000000;display:inline;overflow:visible;visibility:visible;opacity:0.8918919;fill:#d40000;fill-opacity:1;fill-rule:nonzero;stroke:none;stroke-width:3;marker:none;enable-background:accumulate"
               id="path3178"
               transform="translate(-896.41927,12.657204)" />
          </g>
        </g>
      </g>
    </g>
  </g>
</svg>
